<svg version="1.1" xmlns="http://www.w3.org/2000/svg" xmlns:xlink="http://www.w3.org/1999/xlink" role="img" width="291" height="92" viewbox="0 0 291 92"><title>QikWall</title><desc>Generated by logo.svg, https://github.com/bubkoo/logo.svg</desc><path d="M25.36 67.78L13.73 67.78L4.38 58.46L4.38 30.44L13.73 21.13L25.71 21.13L25.71 30.44L19.91 30.44L19.91 58.46L32.22 58.46L47.37 72.77L39.04 80.86L25.36 67.78M49.48 58.46L42.77 65.25L33.94 57.09L33.94 30.44L28.11 30.44L28.11 21.13L40.16 21.13L49.48 30.44L49.48 58.46ZM56.62 30.44L72.19 30.44L72.19 67.78L56.62 67.78L56.62 30.44M56.62 15.89L72.19 15.89L72.19 25.80L56.62 25.80L56.62 15.89ZM95.08 67.78L79.54 67.78L79.54 16.20L95.08 16.20L95.08 67.78M97.50 62.50L97.50 41.20L104.68 30.51L120.74 30.48L97.50 62.50M121.55 67.78L104.68 67.78L102.11 60.25L111.29 47.88L121.55 67.78ZM143.42 46.75L148.09 27.17L154.18 49.32L149.15 67.78L135.05 67.78L121.09 21.13L136.56 21.13L143.42 46.75M176.39 67.78L161.56 67.78L148.76 21.13L164.44 21.13L176.39 67.78M176.54 21.13L190.70 21.13L178.05 65.35L171.72 40.50L176.54 21.13ZM218.05 67.78L218.05 39.76L195.94 39.76L195.94 35.12L200.62 30.44L223.93 30.44L233.24 39.76L233.24 67.78L218.05 67.78M215.59 46.05L215.59 52.52L207.58 52.52L207.58 59.06L215.59 59.06L215.59 63.17L210.95 67.78L199.07 67.78L192.81 61.63L192.81 52.27L199.07 46.05L215.59 46.05ZM262.74 67.78L248.96 67.78L240.24 59.06L240.24 16.20L255.78 16.20L255.78 58.46L262.74 58.46L262.74 67.78ZM289.21 67.78L275.43 67.78L266.71 59.06L266.71 16.20L282.25 16.20L282.25 58.46L289.21 58.46L289.21 67.78Z"></path></svg>